<?xml version="1.0" encoding="UTF-8" standalone="no"?>
<!-- Created with Inkscape (http://www.inkscape.org/) -->

<svg
   width="200.00024"
   height="265.93762"
   viewBox="0 0 52.916731 70.362662"
   version="1.1"
   id="svg1"
   inkscape:version="1.4.3 (0d15f75, 2025-12-25)"
   sodipodi:docname="green-bin.svg"
   inkscape:export-filename="green-bin.png"
   inkscape:export-xdpi="96"
   inkscape:export-ydpi="96"
   xmlns:inkscape="http://www.inkscape.org/namespaces/inkscape"
   xmlns:sodipodi="http://sodipodi.sourceforge.net/DTD/sodipodi-0.dtd"
   xmlns="http://www.w3.org/2000/svg"
   xmlns:svg="http://www.w3.org/2000/svg">
  <sodipodi:namedview
     id="namedview1"
     pagecolor="#ffffff"
     bordercolor="#000000"
     borderopacity="0.25"
     inkscape:showpageshadow="2"
     inkscape:pageopacity="0.0"
     inkscape:pagecheckerboard="0"
     inkscape:deskcolor="#d1d1d1"
     inkscape:document-units="px"
     showguides="false"
     inkscape:zoom="2.4419054"
     inkscape:cx="133.09279"
     inkscape:cy="109.13609"
     inkscape:window-width="1920"
     inkscape:window-height="1009"
     inkscape:window-x="-8"
     inkscape:window-y="-8"
     inkscape:window-maximized="1"
     inkscape:current-layer="layer2" />
  <defs
     id="defs1" />
  <g
     inkscape:label="Calque 1"
     inkscape:groupmode="layer"
     id="layer1"
     transform="translate(-19.843724,-89.710513)" />
  <g
     inkscape:groupmode="layer"
     id="layer3"
     inkscape:label="Calque 3"
     transform="translate(2.987801,-89.250817)" />
  <g
     inkscape:groupmode="layer"
     id="layer2"
     inkscape:label="Calque 2"
     transform="translate(-19.843724,-89.710513)">
    <path
       id="path24"
       style="display:inline;fill:#27eb60;fill-opacity:1;stroke-width:0.186831;stroke-dasharray:none"
       d="m 19.843724,119.61946 v 18.05988 0.66146 13.21728 0.66146 h 0.09147 a 26.458332,7.9673438 0 0 0 26.366866,7.30601 26.458332,7.9673438 0 0 0 26.367383,-7.30601 h 0.09095 v -0.65526 a 26.458332,7.9673438 0 0 0 0,-0.006 26.458332,7.9673438 0 0 0 0,-0.006 v -13.21159 -0.65526 a 26.458332,7.9673438 0 0 0 0,-0.006 26.458332,7.9673438 0 0 0 0,-0.006 v -18.05368 z" />
    <path
       id="path25"
       style="display:inline;fill:#2cbe5b;fill-opacity:1;stroke-width:0.186831;stroke-dasharray:none"
       d="m 19.843724,142.25133 v 1.9389 0.66146 h 0.09147 a 26.458332,7.9673438 0 0 0 26.366866,7.30601 26.458332,7.9673438 0 0 0 26.367383,-7.30601 h 0.09095 v -0.65526 a 26.458332,7.9673438 0 0 0 0,-0.006 26.458332,7.9673438 0 0 0 0,-0.006 v -1.93321 h -0.09095 a 26.458332,7.9673438 0 0 1 -26.367383,7.30601 26.458332,7.9673438 0 0 1 -26.366866,-7.30601 z" />
    <g
       id="g11"
       transform="translate(-24.113238,-76.311455)"
       style="fill:#5eef8d;fill-opacity:0.544601">
      <path
         id="path2"
         style="display:inline;fill:#5eef8d;fill-opacity:0.544601;stroke-width:0.186332"
         d="m 43.956962,188.62579 v 25.91263 0.66146 13.21728 0.66146 h 0.09147 a 26.458332,7.9673438 0 0 0 26.366866,7.30601 26.458332,7.9673438 0 0 0 26.367383,-7.30601 h 0.09095 v -0.65526 a 26.458332,7.9673438 0 0 0 0,-0.006 26.458332,7.9673438 0 0 0 0,-0.006 v -13.21159 -0.65526 a 26.458332,7.9673438 0 0 0 0,-0.006 v -0.006 -25.90694 h -0.09095 a 26.458332,7.9673438 0 0 1 -26.367383,7.30549 26.458332,7.9673438 0 0 1 -26.366866,-7.30549 z" />
      <path
         id="path3"
         style="display:inline;fill:#5eef8d;fill-opacity:0.544601;stroke-width:0.188893"
         d="m 43.956962,188.62579 v 25.91263 0.66146 13.21728 0.66146 h 0.09147 a 26.458332,7.9673438 0 0 0 20.047356,7.07553 v -40.45334 a 26.458332,7.9673438 0 0 1 -20.047356,-7.07502 z m 52.825716,0 a 26.458332,7.9673438 0 0 1 -20.018416,7.07295 v 40.45283 a 26.458332,7.9673438 0 0 0 20.018416,-7.07295 h 0.09095 v -0.65526 a 26.458332,7.9673438 0 0 0 0,-0.006 26.458332,7.9673438 0 0 0 0,-0.006 v -13.21159 -0.65526 a 26.458332,7.9673438 0 0 0 0,-0.006 26.458332,7.9673438 0 0 0 0,-0.006 v -25.90694 z" />
      <path
         id="path4"
         style="display:inline;fill:#5eef8d;fill-opacity:0.544601;stroke-width:0.192272"
         inkscape:label="jaune"
         d="m 43.956962,188.62579 v 25.91263 0.66146 13.21728 0.66146 h 0.09147 a 26.458332,7.9673438 0 0 0 8.814449,5.30045 v -40.45335 a 26.458332,7.9673438 0 0 1 -8.814449,-5.29993 z m 52.825716,0 a 26.458332,7.9673438 0 0 1 -8.814449,5.29993 v 40.45335 a 26.458332,7.9673438 0 0 0 8.814449,-5.30045 h 0.09095 v -0.65526 a 26.458332,7.9673438 0 0 0 0,-0.006 26.458332,7.9673438 0 0 0 0,-0.006 v -13.21159 -0.65526 a 26.458332,7.9673438 0 0 0 0,-0.006 26.458332,7.9673438 0 0 0 0,-0.006 v -25.90694 z" />
    </g>
    <g
       id="g12"
       transform="translate(-0.2759775,-0.57986)">
      <path
         id="path15"
         style="display:inline;fill:#cbfada;fill-opacity:1;stroke-width:0.186332"
         d="m 20.119702,102.37825 v 25.91263 0.66146 13.21728 0.66146 h 0.09147 a 26.458332,7.9673438 0 0 0 26.366866,7.30601 26.458332,7.9673438 0 0 0 26.367383,-7.30601 h 0.09095 v -0.65526 a 26.458332,7.9673438 0 0 0 0,-0.006 26.458332,7.9673438 0 0 0 0,-0.006 v -13.21159 -0.65526 a 26.458332,7.9673438 0 0 0 0,-0.006 v -0.006 -25.90694 h -0.09095 a 26.458332,7.9673438 0 0 1 -26.367383,7.30549 26.458332,7.9673438 0 0 1 -26.366866,-7.30549 z" />
      <path
         id="path16"
         style="display:inline;fill:#b0f8c3;fill-opacity:1;stroke-width:0.188893"
         d="m 20.119702,102.37825 v 25.91263 0.66146 13.21728 0.66146 h 0.09147 a 26.458332,7.9673438 0 0 0 20.047356,7.07553 v -40.45334 a 26.458332,7.9673438 0 0 1 -20.047356,-7.07502 z m 52.825716,0 a 26.458332,7.9673438 0 0 1 -20.018416,7.07295 v 40.45283 a 26.458332,7.9673438 0 0 0 20.018416,-7.07295 h 0.09095 v -0.65526 a 26.458332,7.9673438 0 0 0 0,-0.006 26.458332,7.9673438 0 0 0 0,-0.006 v -13.21159 -0.65526 a 26.458332,7.9673438 0 0 0 0,-0.006 26.458332,7.9673438 0 0 0 0,-0.006 v -25.90694 z" />
      <path
         id="path16-3"
         style="display:inline;fill:#93f7ae;fill-opacity:1;stroke-width:0.192272"
         inkscape:label="jaune"
         d="m 20.119702,102.37825 v 25.91263 0.66146 13.21728 0.66146 h 0.09147 a 26.458332,7.9673438 0 0 0 8.814449,5.30045 v -40.45335 a 26.458332,7.9673438 0 0 1 -8.814449,-5.29993 z m 52.825716,0 a 26.458332,7.9673438 0 0 1 -8.814449,5.29993 v 40.45335 a 26.458332,7.9673438 0 0 0 8.814449,-5.30045 h 0.09095 v -0.65526 a 26.458332,7.9673438 0 0 0 0,-0.006 26.458332,7.9673438 0 0 0 0,-0.006 v -13.21159 -0.65526 a 26.458332,7.9673438 0 0 0 0,-0.006 26.458332,7.9673438 0 0 0 0,-0.006 v -25.90694 z" />
    </g>
    <path
       id="path25-8"
       style="display:inline;fill:#979797;fill-opacity:1;stroke-width:0.186831;stroke-dasharray:none"
       d="m 19.84375,99.19729 v 1.9389 0.66146 h 0.09147 a 26.458332,7.9673438 0 0 0 26.366866,7.30601 26.458332,7.9673438 0 0 0 26.367382,-7.30601 h 0.0909 v -0.65526 a 26.458332,7.9673438 0 0 0 0,-0.006 26.458332,7.9673438 0 0 0 0,-0.006 v -1.93321 h -0.0909 A 26.458332,7.9673438 0 0 1 46.302086,106.50319 26.458332,7.9673438 0 0 1 19.93522,99.19718 Z" />
    <path
       id="path22"
       style="display:inline;fill:#8d8d8d;fill-opacity:1;stroke-width:0.186831;stroke-dasharray:none"
       d="m 19.84375,97.125987 v 1.9389 0.661456 h 0.09147 a 26.458332,7.9673438 0 0 0 26.366866,7.306017 26.458332,7.9673438 0 0 0 26.367382,-7.306017 h 0.0909 v -0.655256 a 26.458332,7.9673438 0 0 0 0,-0.006 26.458332,7.9673438 0 0 0 0,-0.006 v -1.93321 h -0.0909 A 26.458332,7.9673438 0 0 1 46.302086,104.43189 26.458332,7.9673438 0 0 1 19.93522,97.125877 Z" />
    <g
       id="g26"
       transform="translate(-25.895927,9.5726571)">
      <ellipse
         style="fill:#4b4b4b;fill-opacity:1;stroke-width:0.423961"
         id="path1-8-1"
         cx="72.198021"
         cy="87.498543"
         rx="26.458363"
         ry="7.3606873" />
      <ellipse
         style="fill:#2e2e2e;fill-opacity:1;stroke-width:0.386055"
         id="ellipse12"
         cx="72.198013"
         cy="88.181709"
         rx="24.182983"
         ry="6.6775236" />
      <ellipse
         style="fill:#2e2e2e;fill-opacity:1;stroke-width:0.188"
         id="path26"
         cx="62.301929"
         cy="88.823364"
         rx="3.3588865"
         ry="1.3248198" />
    </g>
    <path
       id="path1"
       style="display:inline;fill:#525252;fill-opacity:1;stroke-width:0.186831;stroke-dasharray:none"
       d="M 19.843724 99.197272 L 19.843724 99.726439 L 19.935191 99.726439 A 26.458332 7.9673438 0 0 0 46.302057 107.03245 A 26.458332 7.9673438 0 0 0 72.66944 99.726439 L 72.76039 99.726439 L 72.76039 99.197272 L 72.66944 99.197272 A 26.458332 7.9673438 0 0 1 46.302057 106.50329 A 26.458332 7.9673438 0 0 1 19.935191 99.197272 L 19.843724 99.197272 z " />
  </g>
</svg>
